<svg xmlns="http://www.w3.org/2000/svg" version="1.1" xmlns:xlink="http://www.w3.org/1999/xlink" xmlns:svgjs="http://svgjs.dev/svgjs" width="2000" height="4891" viewBox="0 0 2000 4891"><g transform="matrix(1,0,0,1,-3.50494949470351,1.980161943319672)"><svg viewBox="0 0 101 247" data-background-color="#ffffff" preserveAspectRatio="xMidYMid meet" height="4891" width="2000" xmlns="http://www.w3.org/2000/svg" xmlns:xlink="http://www.w3.org/1999/xlink"><g id="tight-bounds" transform="matrix(1,0,0,1,0.17700005051750622,-0.09999999999999432)"><svg viewBox="0 0 100.64571428571425 247.2" height="247.2" width="100.64571428571425"><g><svg></svg></g><g><svg viewBox="0 0 100.64571428571425 247.2" height="247.2" width="100.64571428571425"><g transform="matrix(1,0,0,1,0,47.215199999999996)"><svg viewBox="0 0 100.64571428571425 152.7696" height="152.7696" width="100.64571428571425"><g><svg viewBox="0 0 100.64571428571425 152.7696" height="152.7696" width="100.64571428571425"><g><svg viewBox="0 0 100.64571428571428 152.76960000000003" height="152.7696" width="100.64571428571425"><g><svg viewBox="0 0 100.64571428571428 152.76960000000003" height="152.76960000000003" width="100.64571428571428"><g id="textblocktransform"><svg viewBox="0 0 100.64571428571428 152.76960000000003" height="152.76960000000003" width="100.64571428571428" id="textblock"><g><svg viewBox="0 0 100.64571428571428 152.76960000000003" height="152.76960000000003" width="100.64571428571428"><g transform="matrix(1,0,0,1,0,0)"><svg width="100.64571428571428" viewBox="1.850000023841858 -35.5 23.75 36.04999923706055" height="152.76960000000003" data-palette-color="#bb84e8"><path d="M5.6-9.15Q5.75-7.55 6.78-6.13 7.8-4.7 9.55-3.83 11.3-2.95 13.6-2.95L13.6-2.95Q17.15-2.95 19.43-4.58 21.7-6.2 21.7-9.3L21.7-9.3Q21.7-11.5 20.5-12.98 19.3-14.45 17.55-15.33 15.8-16.2 12.75-17.35L12.75-17.35Q9.5-18.55 7.5-19.58 5.5-20.6 4.13-22.38 2.75-24.15 2.75-26.9L2.75-26.9Q2.75-29.1 4-31.08 5.25-33.05 7.78-34.27 10.3-35.5 14-35.5L14-35.5Q16.45-35.5 18.05-35.15 19.65-34.8 21.3-34L21.3-34 20.2-30.6Q17.1-31.95 14.1-31.95L14.1-31.95Q10.55-31.95 8.53-30.53 6.5-29.1 6.55-26.65L6.55-26.65Q6.55-25.15 7.6-24.08 8.65-23 10.2-22.25 11.75-21.5 14.4-20.55L14.4-20.55Q17.95-19.25 20.2-18.07 22.45-16.9 24.03-14.83 25.6-12.75 25.6-9.65L25.6-9.65Q25.6-5.05 22.68-2.25 19.75 0.55 13.65 0.55L13.65 0.55Q9.95 0.55 7.33-0.83 4.7-2.2 3.33-4.38 1.95-6.55 1.85-8.9L1.85-8.9 5.6-9.15Z" opacity="1" transform="matrix(1,0,0,1,0,0)" fill="#bb84e8" class="wordmark-text-0" data-fill-palette-color="primary" id="text-0"></path></svg></g></svg></g></svg></g></svg></g><g></g></svg></g></svg></g></svg></g><path d="M0 41.215L0 1 100.646 1 100.646 41.215 86.869 41.215 86.869 14.777 13.777 14.777 13.777 41.215 0 41.215M0 205.985L0 246.2 100.646 246.2 100.646 205.985 86.869 205.985 86.869 232.423 13.777 232.423 13.777 205.985 0 205.985" fill="#bb84e8" stroke="transparent" data-fill-palette-color="primary"></path></svg></g><defs></defs></svg><rect width="100.64571428571425" height="247.2" fill="none" stroke="none" visibility="hidden"></rect></g></svg></g></svg>